<svg width="40" height="40" viewBox="0 0 40 40" fill="none" xmlns="http://www.w3.org/2000/svg">
<path d="M20 24.9583C19.7778 24.9583 19.5628 24.9167 19.355 24.8333C19.1461 24.75 18.9722 24.6389 18.8333 24.5L11.1667 16.8333C10.8611 16.5278 10.7083 16.1389 10.7083 15.6667C10.7083 15.1944 10.8611 14.8056 11.1667 14.5C11.4722 14.1944 11.8611 14.0417 12.3333 14.0417C12.8056 14.0417 13.1944 14.1944 13.5 14.5L20 21L26.5 14.5C26.8055 14.1944 27.1944 14.0417 27.6667 14.0417C28.1389 14.0417 28.5278 14.1944 28.8333 14.5C29.1389 14.8056 29.2917 15.1944 29.2917 15.6667C29.2917 16.1389 29.1389 16.5278 28.8333 16.8333L21.1667 24.5C21 24.6667 20.8194 24.7844 20.625 24.8533C20.4305 24.9233 20.2222 24.9583 20 24.9583V24.9583Z" fill="black"/>
</svg>
